<?xml version="1.0" encoding="utf-8"?>
<!-- Generator: Adobe Illustrator 16.0.0, SVG Export Plug-In . SVG Version: 6.00 Build 0)  -->
<!DOCTYPE svg PUBLIC "-//W3C//DTD SVG 1.1//EN" "http://www.w3.org/Graphics/SVG/1.1/DTD/svg11.dtd">
<svg version="1.1" id="Layer_1" xmlns="http://www.w3.org/2000/svg" xmlns:xlink="http://www.w3.org/1999/xlink" x="0px" y="0px"
	 width="100px" height="100px" viewBox="0 0 100 100" enable-background="new 0 0 100 100" xml:space="preserve">
<g>
	<path d="M21.021,33.75c-0.002-0.838,0.004-1.635,0.019-2.392c0.035-1.987,0.123-4.225,0.267-6.711v-0.427
		c0.069-0.709,0.106-1.438,0.106-2.184s0.035-1.508,0.106-2.29c0.069-0.709,0.194-1.401,0.373-2.077
		c0.176-0.675,0.442-1.367,0.799-2.078c0.213-0.567,0.496-1.047,0.852-1.438c0.354-0.39,0.781-0.763,1.278-1.119
		c1.136-0.567,2.272-0.852,3.409-0.852c0.567,0,1.065,0.019,1.491,0.053c0.427,0.037,0.853,0.09,1.278,0.16
		c0.853,0.071,1.668,0.498,2.45,1.278c0.567,0.498,0.959,1.065,1.172,1.704c0.354,0.924,0.567,1.741,0.64,2.45
		c0.069,0.498,0.106,0.959,0.106,1.385c0,0.427,0,0.853,0,1.278v4.368l-0.214,17.576c0.568,0,1.226,0,1.971,0
		c0.746,0,1.615-0.034,2.61-0.106c3.691,0,7.367,0.037,11.025,0.106c3.657,0.072,7.511,0.106,11.559,0.106h0.106
		c0-3.195,0.017-6.248,0.053-9.161c0.035-2.911,0.124-5.965,0.267-9.161c0-0.709,0.017-1.438,0.054-2.184
		c0.034-0.746,0.088-1.508,0.159-2.29c0.07-0.709,0.195-1.401,0.373-2.077c0.177-0.675,0.442-1.367,0.799-2.078
		c0.142-0.567,0.408-1.047,0.799-1.438c0.39-0.39,0.869-0.763,1.438-1.119c0.994-0.567,2.094-0.852,3.303-0.852
		c0.567,0,1.081,0.019,1.544,0.053c0.461,0.037,0.869,0.09,1.226,0.16c0.993,0.144,1.811,0.569,2.45,1.278
		c0.567,0.356,0.958,0.924,1.172,1.704c0.141,0.427,0.266,0.836,0.372,1.226c0.106,0.391,0.23,0.799,0.373,1.225
		c0.07,0.498,0.106,0.959,0.106,1.385c0,0.427,0,0.853,0,1.278v4.368l-0.639,55.287v1.065c0,0.426-0.106,1.065-0.32,1.917
		c-0.071,0.354-0.178,0.728-0.319,1.119c-0.143,0.39-0.284,0.799-0.426,1.225c-0.356,0.853-0.853,1.491-1.491,1.918
		c-0.569,0.567-1.491,0.958-2.77,1.172c-1.989,0.426-3.801,0.248-5.434-0.533c-0.924-0.569-1.563-1.278-1.917-2.131
		c-0.144-0.143-0.285-0.355-0.427-0.639c0-0.144-0.071-0.356-0.213-0.64c-0.143-0.355-0.249-0.729-0.319-1.118
		c-0.071-0.391-0.144-0.799-0.213-1.225c0-0.356-0.019-0.711-0.054-1.065c-0.036-0.356-0.09-0.711-0.159-1.065
		C62.069,79.791,62,79.49,62,79.242c0-0.25,0-0.55,0-0.905c0.141-0.283,0.213-0.816,0.213-1.599l0.106-8.415L62.426,54.9h-5.753
		l-21.625,0.106l-0.213,25.141v1.065c0,0.426-0.106,1.065-0.319,1.917c-0.071,0.354-0.178,0.728-0.319,1.119
		c-0.144,0.39-0.285,0.799-0.427,1.225c-0.355,0.853-0.852,1.491-1.491,1.918c-0.569,0.567-1.491,0.958-2.77,1.172
		c-1.989,0.426-3.8,0.248-5.433-0.533c-0.711-0.426-1.385-1.137-2.024-2.131c-0.143-0.284-0.213-0.497-0.213-0.639l-0.319-0.64
		c-0.144-0.355-0.25-0.729-0.319-1.118c-0.072-0.391-0.144-0.799-0.214-1.225c0-0.356-0.036-0.711-0.106-1.065
		c-0.071-0.356-0.143-0.711-0.213-1.065c-0.071-0.569-0.071-1.172,0-1.811v-1.599l0.106-8.415l0.213-15.659
		c0.07-2.272,0.106-4.616,0.106-7.031c0-2.414,0-4.9,0-7.457C21.07,37.351,21.033,34.515,21.021,33.75"/>
</g>
<polyline fill="none" stroke="#000000" stroke-miterlimit="10" points="123.133,43.888 138.688,44.938 153.969,61.344 151.75,77.5 
	112,77.5 94.25,60.188 108.125,42.875 123.133,43.888 "/>
</svg>
